<svg width="130" height="30" viewBox="0 0 130 30" fill="none" xmlns="http://www.w3.org/2000/svg">
<rect width="130" height="30" fill="black"/>
<path d="M16.5152 14.5048C16.5152 13.4224 16.7494 12.4597 17.2177 11.6166C17.686 10.7632 18.3365 10.1023 19.1691 9.63399C20.0121 9.15523 20.9644 8.91586 22.026 8.91586C23.327 8.91586 24.4406 9.25931 25.3669 9.94622C26.2932 10.6331 26.9124 11.5698 27.2246 12.7563H24.2897C24.0711 12.2983 23.7589 11.9497 23.353 11.7103C22.9575 11.4709 22.5048 11.3512 21.9948 11.3512C21.1726 11.3512 20.5065 11.6375 19.9965 12.2099C19.4866 12.7823 19.2316 13.5473 19.2316 14.5048C19.2316 15.4623 19.4866 16.2272 19.9965 16.7996C20.5065 17.3721 21.1726 17.6583 21.9948 17.6583C22.5048 17.6583 22.9575 17.5386 23.353 17.2992C23.7589 17.0598 24.0711 16.7112 24.2897 16.2532H27.2246C26.9124 17.4397 26.2932 18.3764 25.3669 19.0633C24.4406 19.7398 23.327 20.0781 22.026 20.0781C20.9644 20.0781 20.0121 19.8439 19.1691 19.3755C18.3365 18.8968 17.686 18.2359 17.2177 17.3929C16.7494 16.5499 16.5152 15.5872 16.5152 14.5048ZM29.9054 17.8612C30.2593 17.5802 30.4206 17.4501 30.3894 17.4709C31.4093 16.6279 32.2107 15.9358 32.7935 15.3946C33.3868 14.8534 33.8863 14.2862 34.2922 13.693C34.6981 13.0997 34.9011 12.5221 34.9011 11.9601C34.9011 11.5334 34.8022 11.2003 34.6045 10.961C34.4067 10.7216 34.1101 10.6019 33.7146 10.6019C33.3191 10.6019 33.0069 10.7528 32.7779 11.0546C32.5594 11.346 32.4501 11.7623 32.4501 12.3035H29.8742C29.895 11.4189 30.0824 10.68 30.4362 10.0867C30.8005 9.49348 31.274 9.05636 31.8569 8.77536C32.4501 8.49435 33.1058 8.35385 33.8239 8.35385C35.0624 8.35385 35.9939 8.67128 36.6184 9.30615C37.2532 9.94101 37.5707 10.7684 37.5707 11.7884C37.5707 12.902 37.1908 13.9375 36.431 14.8951C35.6713 15.8421 34.7033 16.7684 33.5273 17.6739H37.7424V19.8439H29.9054V17.8612ZM40.1354 14.5048C40.1354 13.4224 40.3696 12.4597 40.838 11.6166C41.3063 10.7632 41.9568 10.1023 42.7894 9.63399C43.6324 9.15523 44.5847 8.91586 45.6463 8.91586C46.9473 8.91586 48.0609 9.25931 48.9871 9.94622C49.9134 10.6331 50.5327 11.5698 50.8449 12.7563H47.91C47.6914 12.2983 47.3792 11.9497 46.9733 11.7103C46.5778 11.4709 46.125 11.3512 45.6151 11.3512C44.7929 11.3512 44.1268 11.6375 43.6168 12.2099C43.1068 12.7823 42.8518 13.5473 42.8518 14.5048C42.8518 15.4623 43.1068 16.2272 43.6168 16.7996C44.1268 17.3721 44.7929 17.6583 45.6151 17.6583C46.125 17.6583 46.5778 17.5386 46.9733 17.2992C47.3792 17.0598 47.6914 16.7112 47.91 16.2532H50.8449C50.5327 17.4397 49.9134 18.3764 48.9871 19.0633C48.0609 19.7398 46.9473 20.0781 45.6463 20.0781C44.5847 20.0781 43.6324 19.8439 42.7894 19.3755C41.9568 18.8968 41.3063 18.2359 40.838 17.3929C40.3696 16.5499 40.1354 15.5872 40.1354 14.5048ZM65.7325 9.04075V11.1795H61.2676V13.49H64.6085V15.5663H61.2676V20H58.5981V9.04075H65.7325ZM71.2102 9.04075V20H68.5406V9.04075H71.2102ZM77.2194 17.9393H80.7164V20H74.5498V9.04075H77.2194V17.9393ZM95.8058 9.04075V20H93.1363V13.4276L90.6853 20H88.5309L86.0643 13.412V20H83.3947V9.04075H86.5482L89.6237 16.6279L92.6679 9.04075H95.8058ZM103.096 20.1093C102.294 20.1093 101.576 19.9792 100.941 19.719C100.307 19.4588 99.7967 19.0737 99.4116 18.5637C99.0369 18.0538 98.8392 17.4397 98.8183 16.7216H101.66C101.701 17.1275 101.842 17.4397 102.081 17.6583C102.321 17.8664 102.633 17.9705 103.018 17.9705C103.413 17.9705 103.726 17.882 103.955 17.7051C104.183 17.5178 104.298 17.2628 104.298 16.9402C104.298 16.6696 104.204 16.4458 104.017 16.2689C103.84 16.0919 103.616 15.9462 103.346 15.8317C103.085 15.7173 102.711 15.5872 102.222 15.4415C101.514 15.2229 100.936 15.0043 100.489 14.7858C100.041 14.5672 99.6562 14.2446 99.3335 13.8179C99.0109 13.3911 98.8496 12.8343 98.8496 12.1474C98.8496 11.1275 99.219 10.3313 99.958 9.75888C100.697 9.17605 101.66 8.88464 102.846 8.88464C104.053 8.88464 105.026 9.17605 105.765 9.75888C106.504 10.3313 106.9 11.1327 106.952 12.163H104.064C104.043 11.8092 103.913 11.5334 103.674 11.3356C103.434 11.1275 103.127 11.0234 102.752 11.0234C102.43 11.0234 102.17 11.1119 101.972 11.2888C101.774 11.4553 101.675 11.6999 101.675 12.0225C101.675 12.3764 101.842 12.6522 102.175 12.8499C102.508 13.0477 103.028 13.2611 103.736 13.49C104.444 13.7294 105.016 13.9584 105.453 14.1769C105.901 14.3955 106.286 14.7129 106.608 15.1292C106.931 15.5455 107.092 16.0815 107.092 16.7372C107.092 17.3617 106.931 17.9289 106.608 18.4389C106.296 18.9488 105.838 19.3547 105.235 19.6565C104.631 19.9584 103.918 20.1093 103.096 20.1093Z" fill="white"/>
</svg>
